<svg width="60" height="294" viewBox="0 0 60 294" fill="none" xmlns="http://www.w3.org/2000/svg">
<g filter="url(#filter0_i_2528_340)">
<rect x="13.4" y="24" width="33.2" height="33.2" rx="5.2" fill="white"/>
<rect x="13.4" y="24" width="33.2" height="33.2" rx="5.2" fill="url(#paint0_linear_2528_340)"/>
<rect x="13.4" y="24" width="33.2" height="33.2" rx="5.2" fill="url(#paint1_linear_2528_340)"/>
<rect x="13.6" y="24.2" width="32.8" height="32.8" rx="5" stroke="url(#paint2_linear_2528_340)" stroke-width="0.4"/>
<path d="M28.5704 51.7476C27.2111 52.0352 25.4927 50.7086 26.6512 49.9416C27.7367 49.2229 30.0353 49.3271 30.9669 48.4358C35.3336 44.3607 24.1129 48.164 32.9798 41.7588C33.5901 41.3179 34.2167 40.8794 34.7036 40.3051C37.8439 36.6011 27.6722 42.1371 32.4482 36.6175C40.4931 23.9112 27.6636 34.2252 26.0905 42.0306C23.3416 66.3623 18.6556 36.6862 31.9836 29.7454C34.3578 28.6252 37.2636 27.9852 37.0283 31.8813C36.783 34.9419 34.8636 35.3452 36.7514 37.881C38.0636 40.1452 34.8185 42.8365 33.5178 44.7054C36.3704 48.263 32.306 50.957 28.5704 51.7476Z" fill="white"/>
</g>
<line x1="16" y1="86.7" x2="44" y2="86.7" stroke="#134E48"/>
<rect x="12" y="117.2" width="36" height="36" rx="8" fill="white"/>
<path d="M37.5 134.227V141.45C37.5 141.782 37.3683 142.099 37.1339 142.334C36.8995 142.568 36.5815 142.7 36.25 142.7H33.125C32.7935 142.7 32.4755 142.568 32.2411 142.334C32.0067 142.099 31.875 141.782 31.875 141.45V138.325C31.875 138.159 31.8092 138 31.6919 137.883C31.5747 137.766 31.4158 137.7 31.25 137.7H28.75C28.5842 137.7 28.4253 137.766 28.3081 137.883C28.1908 138 28.125 138.159 28.125 138.325V141.45C28.125 141.782 27.9933 142.099 27.7589 142.334C27.5245 142.568 27.2065 142.7 26.875 142.7H23.75C23.4185 142.7 23.1005 142.568 22.8661 142.334C22.6317 142.099 22.5 141.782 22.5 141.45V134.227C22.5 134.054 22.5359 133.883 22.6054 133.725C22.6749 133.566 22.7766 133.424 22.9039 133.307L29.1539 127.41L29.1625 127.402C29.3926 127.192 29.6925 127.076 30.0035 127.076C30.3146 127.076 30.6144 127.192 30.8445 127.402C30.8472 127.405 30.8501 127.408 30.8531 127.41L37.1031 133.307C37.2292 133.425 37.3295 133.567 37.3978 133.726C37.4661 133.884 37.5009 134.055 37.5 134.227Z" fill="#115E56"/>
<path d="M38.125 192.888C38.1227 194.959 37.2989 196.945 35.8343 198.409C34.3696 199.874 32.3838 200.698 30.3125 200.7H23.7242C23.3997 200.7 23.0885 200.57 22.859 200.341C22.6295 200.111 22.5004 199.8 22.5 199.476V192.888C22.5 190.816 23.3231 188.828 24.7882 187.363C26.2534 185.898 28.2405 185.075 30.3125 185.075C32.3845 185.075 34.3716 185.898 35.8368 187.363C37.3019 188.828 38.125 190.816 38.125 192.888Z" fill="#CCFBEF"/>
<path d="M38 258.324C38.0699 258.417 38.1125 258.528 38.123 258.643C38.1336 258.759 38.1116 258.875 38.0597 258.979C38.0078 259.083 37.9279 259.171 37.829 259.232C37.7301 259.293 37.6162 259.325 37.5 259.325H22.5C22.3839 259.325 22.2702 259.293 22.1714 259.232C22.0727 259.171 21.9929 259.083 21.941 258.98C21.8891 258.876 21.8671 258.759 21.8775 258.644C21.8879 258.528 21.9304 258.418 22 258.325C22.5534 257.583 23.2914 256.999 24.1406 256.63C23.6751 256.206 23.349 255.65 23.205 255.036C23.0609 254.423 23.1058 253.78 23.3336 253.193C23.5614 252.605 23.9616 252.1 24.4816 251.744C25.0016 251.388 25.6171 251.197 26.2473 251.197C26.8775 251.197 27.493 251.388 28.0129 251.744C28.5329 252.1 28.9331 252.605 29.1609 253.193C29.3887 253.78 29.4336 254.423 29.2896 255.036C29.1456 255.65 28.8194 256.206 28.3539 256.63C28.9666 256.895 29.5233 257.274 29.9945 257.747C30.4657 257.274 31.0225 256.895 31.6352 256.63C31.1697 256.206 30.8435 255.65 30.6995 255.036C30.5555 254.423 30.6003 253.78 30.8281 253.193C31.056 252.605 31.4561 252.1 31.9761 251.744C32.4961 251.388 33.1116 251.197 33.7418 251.197C34.372 251.197 34.9875 251.388 35.5075 251.744C36.0274 252.1 36.4276 252.605 36.6554 253.193C36.8833 253.78 36.9281 254.423 36.7841 255.036C36.6401 255.65 36.3139 256.206 35.8484 256.63C36.7016 256.997 37.4435 257.581 38 258.324ZM22.125 251.075C22.1907 251.124 22.2654 251.16 22.3449 251.18C22.4244 251.201 22.5071 251.205 22.5884 251.194C22.6696 251.182 22.7478 251.155 22.8184 251.113C22.8891 251.071 22.9508 251.016 23 250.95C23.3784 250.445 23.8691 250.036 24.4332 249.754C24.9973 249.472 25.6193 249.325 26.25 249.325C26.8807 249.325 27.5027 249.472 28.0668 249.754C28.6309 250.036 29.1216 250.445 29.5 250.95C29.5582 251.028 29.6337 251.091 29.7205 251.134C29.8073 251.177 29.903 251.2 30 251.2C30.097 251.2 30.1927 251.177 30.2795 251.134C30.3663 251.091 30.4418 251.028 30.5 250.95C30.8784 250.445 31.3691 250.036 31.9332 249.754C32.4973 249.472 33.1193 249.325 33.75 249.325C34.3807 249.325 35.0027 249.472 35.5668 249.754C36.1309 250.036 36.6216 250.445 37 250.95C37.0493 251.016 37.111 251.071 37.1817 251.113C37.2524 251.155 37.3306 251.182 37.4119 251.194C37.4932 251.205 37.5759 251.201 37.6555 251.18C37.735 251.16 37.8097 251.124 37.8754 251.075C37.9411 251.025 37.9964 250.964 38.0382 250.893C38.08 250.822 38.1074 250.744 38.119 250.663C38.1306 250.581 38.126 250.499 38.1056 250.419C38.0852 250.34 38.0493 250.265 38 250.199C37.4466 249.457 36.7085 248.874 35.8594 248.505C36.3249 248.081 36.651 247.525 36.795 246.911C36.9391 246.298 36.8942 245.655 36.6664 245.068C36.4386 244.48 36.0384 243.975 35.5184 243.619C34.9984 243.263 34.3829 243.072 33.7527 243.072C33.1225 243.072 32.507 243.263 31.9871 243.619C31.4671 243.975 31.0669 244.48 30.8391 245.068C30.6113 245.655 30.5664 246.298 30.7104 246.911C30.8544 247.525 31.1806 248.081 31.6461 248.505C31.0334 248.77 30.4767 249.149 30.0055 249.622C29.5343 249.149 28.9775 248.77 28.3648 248.505C28.8303 248.081 29.1565 247.525 29.3005 246.911C29.4445 246.298 29.3997 245.655 29.1719 245.068C28.944 244.48 28.5439 243.975 28.0239 243.619C27.5039 243.263 26.8884 243.072 26.2582 243.072C25.628 243.072 25.0125 243.263 24.4925 243.619C23.9726 243.975 23.5724 244.48 23.3446 245.068C23.1167 245.655 23.0719 246.298 23.2159 246.911C23.3599 247.525 23.6861 248.081 24.1516 248.505C23.2984 248.872 22.5564 249.457 22 250.2C21.9508 250.266 21.9149 250.34 21.8946 250.42C21.8742 250.499 21.8697 250.582 21.8813 250.663C21.8929 250.745 21.9204 250.823 21.9622 250.893C22.004 250.964 22.0593 251.026 22.125 251.075Z" fill="#CCFBEF"/>
<defs>
<filter id="filter0_i_2528_340" x="13.4" y="20.4" width="33.2" height="36.8" filterUnits="userSpaceOnUse" color-interpolation-filters="sRGB">
<feFlood flood-opacity="0" result="BackgroundImageFix"/>
<feBlend mode="normal" in="SourceGraphic" in2="BackgroundImageFix" result="shape"/>
<feColorMatrix in="SourceAlpha" type="matrix" values="0 0 0 0 0 0 0 0 0 0 0 0 0 0 0 0 0 0 127 0" result="hardAlpha"/>
<feOffset dy="-3.6"/>
<feGaussianBlur stdDeviation="4.14"/>
<feComposite in2="hardAlpha" operator="arithmetic" k2="-1" k3="1"/>
<feColorMatrix type="matrix" values="0 0 0 0 0.278576 0 0 0 0 0.591667 0 0 0 0 0.56213 0 0 0 1 0"/>
<feBlend mode="normal" in2="shape" result="effect1_innerShadow_2528_340"/>
</filter>
<linearGradient id="paint0_linear_2528_340" x1="45.6" y1="24.6" x2="14.6" y2="58.2" gradientUnits="userSpaceOnUse">
<stop stop-color="white" stop-opacity="0.81"/>
<stop offset="1" stop-color="white"/>
</linearGradient>
<linearGradient id="paint1_linear_2528_340" x1="45.6" y1="24.6" x2="14.6" y2="58.2" gradientUnits="userSpaceOnUse">
<stop stop-color="#3FDCCD" stop-opacity="0.81"/>
<stop offset="1" stop-color="#09544D"/>
</linearGradient>
<linearGradient id="paint2_linear_2528_340" x1="30" y1="24" x2="30" y2="57.2" gradientUnits="userSpaceOnUse">
<stop stop-color="#33F7E4"/>
<stop offset="1" stop-color="#051D1B" stop-opacity="0"/>
</linearGradient>
</defs>
</svg>
